<svg xmlns="http://www.w3.org/2000/svg" viewBox="0 0 192 192"><defs><style>.cls-1{fill:#621360;}.cls-2{fill:#521050;}.cls-3{fill:#fff;}</style></defs><g id="background"><rect class="cls-1" width="191.75" height="191.75" rx="32"/></g><g id="shadow"><path class="cls-2" d="M191.75,100.68v59.07a32,32,0,0,1-32,32H97.29l-.1-.11a3.06,3.06,0,0,1-.36-.36,4,4,0,0,1-.36-.35l-.36-.36-.36-.36-.36-.36q-.18-.16-.36-.36a4,4,0,0,1-.35-.36,3.06,3.06,0,0,1-.36-.36,4,4,0,0,1-.36-.35q-.19-.18-.36-.36l-.36-.36-.36-.36q-.18-.17-.36-.36a4,4,0,0,1-.35-.36,3.06,3.06,0,0,1-.36-.36,4,4,0,0,1-.36-.35l-.36-.36-.36-.36c-.12-.12-.24-.23-.36-.36l-.36-.36a4,4,0,0,1-.35-.36,3.06,3.06,0,0,1-.36-.36,4,4,0,0,1-.36-.35l-.36-.36-.36-.36-.36-.36q-.18-.16-.36-.36a17.83,17.83,0,0,0-.71-.71q-.2-.18-.36-.36t-.36-.36l-.36-.36-.36-.36q-.18-.17-.36-.36a4,4,0,0,1-.35-.36,3.06,3.06,0,0,1-.36-.36,4,4,0,0,1-.36-.35l-.36-.36-.36-.36c-.12-.12-.24-.23-.36-.36l-.36-.36a4,4,0,0,1-.35-.36,3.06,3.06,0,0,1-.36-.36,4,4,0,0,1-.36-.35l-.36-.36-.36-.36-.36-.36q-.18-.16-.36-.36a17.83,17.83,0,0,0-.71-.71l-.36-.36q-.2-.18-.36-.36l-.36-.36-.36-.36q-.18-.17-.36-.36a4,4,0,0,1-.35-.36,3.06,3.06,0,0,1-.36-.36,4,4,0,0,1-.36-.35q-.19-.18-.36-.36l-.36-.36-.36-.36-.36-.36a17.83,17.83,0,0,0-.71-.71q-.19-.18-.36-.36l-.36-.36-.36-.36-.36-.36-.36-.36a17.83,17.83,0,0,0-.71-.71l-.36-.36q-.2-.18-.36-.36l-.36-.36-.36-.36q-.18-.17-.36-.36a17.83,17.83,0,0,0-.71-.71l-.36-.36q-.19-.18-.36-.36l-.36-.36-.36-.36-.36-.36a17.83,17.83,0,0,0-.71-.71q-.19-.18-.36-.36l-.36-.36-.36-.36c-.12-.12-.24-.23-.36-.36l-.36-.36a17.83,17.83,0,0,0-.71-.71l-.36-.36-.36-.36-.36-.36-.36-.36q-.18-.16-.36-.36a17.83,17.83,0,0,0-.71-.71l-.36-.36q-.19-.18-.36-.36l-.36-.36q-.18-.16-.36-.36l-.36-.36a17.83,17.83,0,0,0-.71-.71q-.2-.18-.36-.36l-.36-.36-.36-.36c-.12-.12-.24-.23-.36-.36s-.24-.23-.36-.36a17.83,17.83,0,0,0-.71-.71l-.36-.36-.36-.36A6,6,0,0,1,54,146V135.32l-.24-.24-.36-.35-.36-.36A17.82,17.82,0,0,1,48,122V62c0-21,21.48-24,48-24,18.46,0,34.47,1.46,42.5,9.43l.36.35.36.36.35.36.36.36c.13.12.24.24.36.36l.36.36c.12.11.24.24.36.36l.36.36.36.35.35.36.36.36.36.36.36.36.36.36.36.35.36.36.35.36c.13.12.24.24.36.36s.24.24.36.36l.36.36L146,55l.36.35.36.36.35.36.36.36c.13.12.24.24.36.36l.36.36c.12.11.24.24.36.36l.36.35.35.36.36.36c.13.12.24.24.36.36l.36.36.36.36.36.36.36.36c.12.11.24.23.35.35l.36.36.36.36c.13.12.24.24.36.36l.36.36.36.36.36.35.36.36.35.36.36.36.36.36.36.36c.12.11.24.24.36.36l.36.35.36.36.35.36c.13.12.24.24.36.36s.24.24.36.36l.36.36c.12.11.24.24.36.36l.36.35c.12.12.23.24.36.36l.35.36.36.36.36.36c.12.11.24.24.36.36s.24.24.36.36l.36.35.35.36c.13.12.24.24.36.36s.24.24.36.36.24.24.36.36.24.24.36.36.24.24.36.36l.36.35.35.36.36.36c.13.12.24.24.36.36l.36.36.36.36c.12.11.24.24.36.36l.36.35.36.36.35.36.36.36.36.36c.12.11.24.24.36.36s.24.24.36.36l.36.35.35.36c.13.12.24.24.36.36s.24.24.36.36.24.24.36.36.24.24.36.36l.36.36.36.35.35.36.36.36c.13.12.24.24.36.36l.36.36c.12.11.24.24.36.36s.24.24.36.36l.36.35.35.36.36.36.36.36.36.36c.12.11.24.24.36.36s.24.24.36.36l.36.35.35.36c.13.12.24.24.36.36s.24.24.36.36.24.24.36.36.24.24.36.36l.36.36.36.35.35.36.36.36c.13.12.24.24.36.36l.36.36c.12.11.24.24.36.36s.24.24.36.36l.36.35.35.36.36.36.36.36.36.36c.12.11.24.24.36.36s.24.24.36.36L184,93l.35.36c.13.12.24.24.36.36s.24.24.36.36.24.24.36.36.24.24.36.36l.36.36.36.35.35.36.36.36.36.36.36.36c.12.11.24.24.36.36s.24.24.36.36l.36.35.35.36c.13.12.24.24.36.36s.24.24.36.36l.36.36c.12.11.24.24.36.36s.24.24.36.36l.36.35Z"/></g><g id="bus"><path class="cls-3" d="M48,122a17.92,17.92,0,0,0,6,13.32V146a6,6,0,0,0,6,6h6a6,6,0,0,0,6-6v-6h48v6a6,6,0,0,0,6,6h6a6,6,0,0,0,6-6V135.32A17.92,17.92,0,0,0,144,122V62c0-21-21.48-24-48-24S48,41,48,62Zm21,6a9,9,0,1,1,9-9A9,9,0,0,1,69,128Zm54,0a9,9,0,1,1,9-9A9,9,0,0,1,123,128Zm9-36H60V62h72Z"/></g></svg>