<?xml version="1.0" encoding="UTF-8"?>
<svg id="Layer_2" data-name="Layer 2" xmlns="http://www.w3.org/2000/svg" viewBox="0 0 293 293">
  <defs>
    <style>
      .cls-1 {
        fill: #00a0ff;
      }

      .cls-1, .cls-2 {
        stroke: #fff;
      }

      .cls-2 {
        fill: #621360;
      }
    </style>
  </defs>
  <g id="Layer_1-2" data-name="Layer 1">
    <circle class="cls-1" cx="146.5" cy="146.5" r="146"/>
    <path class="cls-2" d="m89.92,239.79c-2.66,0-4.89-.97-6.7-2.9-1.8-1.94-2.7-4.33-2.7-7.19v-20.69c-2.82-3.36-5.09-7.11-6.82-11.23-1.72-4.13-2.59-8.63-2.59-13.5v-95.88c0-13.96,6.03-24.18,18.09-30.66,12.07-6.47,31.1-9.71,57.11-9.71s46.22,3.11,57.81,9.34c11.59,6.22,17.39,16.57,17.39,31.03v95.88c0,4.87-.86,9.38-2.59,13.5-1.72,4.11-3.99,7.86-6.81,11.23v20.69c0,2.85-.9,5.25-2.71,7.19-1.8,1.93-4.03,2.9-6.7,2.9h-9.4c-2.66,0-4.9-.97-6.7-2.9-1.8-1.94-2.7-4.33-2.7-7.19v-10.1h-75.2v10.1c0,2.85-.9,5.25-2.71,7.19-1.8,1.93-4.04,2.9-6.7,2.9h-9.4Zm56.88-161.49h52.64-105.28,52.64Zm37.13,70.65h-94.01,112.81-18.8Zm-94.01-20.18h112.81v-30.28h-112.81v30.28Zm23.5,60.56c3.92,0,7.25-1.47,9.99-4.42,2.74-2.95,4.11-6.52,4.11-10.72s-1.37-7.78-4.11-10.72c-2.74-2.94-6.07-4.42-9.99-4.42s-7.25,1.47-9.99,4.42c-2.74,2.95-4.11,6.51-4.11,10.72s1.37,7.78,4.11,10.72c2.74,2.94,6.07,4.42,9.99,4.42Zm65.8,0c3.92,0,7.25-1.47,9.99-4.42,2.74-2.95,4.11-6.52,4.11-10.72s-1.37-7.78-4.11-10.72c-2.74-2.94-6.07-4.42-9.99-4.42s-7.25,1.47-9.99,4.42c-2.74,2.95-4.11,6.51-4.11,10.72s1.37,7.78,4.11,10.72c2.74,2.94,6.07,4.42,9.99,4.42Zm-85.07-111.02h105.28c-2.35-2.86-7.4-5.26-15.16-7.19-7.76-1.94-20.25-2.9-37.48-2.9s-29.03,1.06-36.78,3.15c-7.76,2.11-13.04,4.42-15.86,6.94Zm14.57,121.12h75.2c5.17,0,9.6-1.98,13.27-5.93,3.68-3.95,5.52-8.7,5.52-14.26v-30.28h-112.81v30.28c0,5.56,1.84,10.31,5.53,14.26,3.68,3.95,8.11,5.93,13.28,5.93Z"/>
  </g>
</svg>