<svg xmlns="http://www.w3.org/2000/svg" viewBox="0 0 14 20"><defs><style>.cls-1{fill:#7b1fa2;}.cls-2{fill:#fff;}</style></defs><title>Asset 4</title><g id="Layer_2" data-name="Layer 2"><g id="Layer_1-2" data-name="Layer 1"><path class="cls-1" d="M7,0A7,7,0,0,0,0,7c0,5.25,7,13,7,13s7-7.75,7-13A7,7,0,0,0,7,0ZM7,9.5A2.5,2.5,0,1,1,9.5,7,2.5,2.5,0,0,1,7,9.5Z"/><path class="cls-1" d="M7.1,2.43c-6.43,0-6.44,10,0,10S13.55,2.43,7.1,2.43Z"/><path class="cls-2" d="M8.44,3.46c0,.82,0,1.64,0,2.47,0,.16,0,.16.15.18a2.68,2.68,0,0,1,2.5,2.53,2.67,2.67,0,0,1-1.93,2.71,2.13,2.13,0,0,1-.56.1.38.38,0,0,0-.29.12L5.89,14l0,0s-.05.08-.08.06,0-.07,0-.11V11.61c0-.15,0-.16-.16-.17a2.54,2.54,0,0,1-1.51-.59,2.61,2.61,0,0,1-1-1.71.08.08,0,0,0,0-.05c0-1.85,0-3.7,0-5.54,0-.08,0-.1.09-.1Z"/></g></g></svg>